<svg width="32" height="32" xmlns="http://www.w3.org/2000/svg"><g fill-rule="nonzero" fill="none"><path d="M23.123 11.378c2.89 2.89 2.387 8.1-1.126 11.613-1.688 1.687-3.813 2.74-5.987 2.965-.29.029-.576.044-.856.044-1.87 0-3.539-.656-4.769-1.886-1.416-1.414-2.07-3.412-1.839-5.625.224-2.173 1.277-4.299 2.964-5.986 3.515-3.512 8.724-4.019 11.613-1.125zm-.18.18c-.961 1.16-1.67 2.482-2.851 3.453-1.257 1.033-2.64 1.41-4.161 1.85-3.338.97-4.988 3.791-5.369 7.075 1.043-1.253 1.808-2.657 3.125-3.663 1.152-.88 2.398-1.227 3.754-1.598 3.411-.936 5.105-3.781 5.502-7.117zM14.49 5.003a10.573 10.573 0 012.165 3.151c-1.68.29-3.308.992-4.75 2.046a7.17 7.17 0 00-1.837-.84c-1.519-.44-2.903-.816-4.16-1.85-1.18-.971-1.889-2.296-2.852-3.454.396 3.336 2.091 6.182 5.502 7.118.576.157 1.128.32 1.666.511-1.626 1.713-2.696 3.8-3.07 5.97A10.607 10.607 0 014 15.491C.492 11.978-.014 6.768 2.877 3.878 5.766.986 10.975 1.49 14.489 5.003z" fill="#0E8784"/></g></svg>